<?xml version="1.0" encoding="UTF-8"?>
<svg id="Layer_1" xmlns="http://www.w3.org/2000/svg" version="1.1" viewBox="0 0 40 40">
  <!-- Generator: Adobe Illustrator 29.0.0, SVG Export Plug-In . SVG Version: 2.1.0 Build 186)  -->
  <defs>
    <style>
      .st0 {
        fill: #2563eb;
      }

      .st1 {
        fill: #fff;
      }
    </style>
  </defs>
  <path class="st1" d="M17.2070639,35.7889308c-3.1717953,0-5.7528613-2.581066-5.7528613-5.7528613s2.581066-5.7528613,5.7528613-5.7528613,5.7528613,2.581066,5.7528613,5.7528613-2.581066,5.7528613-5.7528613,5.7528613ZM17.2070639,26.4949334c-1.9525386,0-3.5411361,1.5885975-3.5411361,3.5411361s1.5885975,3.5411361,3.5411361,3.5411361,3.5411361-1.5885975,3.5411361-3.5411361-1.5885975-3.5411361-3.5411361-3.5411361Z"/>
  <rect class="st1" x="21.7276746" y="23.9932887" width="16.8072364" height="2.2116344" transform="translate(-6.3197749 10.6360639) rotate(-18.1518342)"/>
  <polygon class="st1" points="14.1130246 26.5748492 8.7640624 8.554905 .9053105 6.1153117 1.5619164 4.0029414 10.5481297 6.7924365 16.2340345 25.9463219 14.1130246 26.5748492"/>
  <rect class="st1" x="17.1180484" y="7.7954989" width="16.2153907" height="13.9195754" transform="translate(-3.3299362 8.5400013) rotate(-18.0454354)"/>
  <rect class="st0" x="22.9352906" y="7.8662661" width="2.211317" height="7.0923409" transform="translate(-2.4313824 8.6872563) rotate(-19.5164976)"/>
</svg>